{
	"asset":{
		"generator":"Khronos glTF Blender I/O v4.2.70",
		"version":"2.0"
	},
	"scene":0,
	"scenes":[
		{
			"name":"Scene",
			"nodes":[
				0
			]
		}
	],
	"nodes":[
		{
			"mesh":0,
			"name":"Cube",
			"scale":[
				1.1086101531982422,
				1.1086101531982422,
				1.1086101531982422
			]
		}
	],
	"meshes":[
		{
			"name":"Cube.001",
			"primitives":[
				{
					"attributes":{
						"POSITION":0,
						"NORMAL":1,
						"TEXCOORD_0":2,
						"TANGENT":3
					},
					"indices":4
				}
			]
		}
	],
	"accessors":[
		{
			"bufferView":0,
			"componentType":5126,
			"count":760,
			"max":[
				6.045444965362549,
				6.093345642089844,
				4.234498500823975
			],
			"min":[
				-12.439151763916016,
				-6.040220737457275,
				-6.595163345336914
			],
			"type":"VEC3"
		},
		{
			"bufferView":1,
			"componentType":5126,
			"count":760,
			"type":"VEC3"
		},
		{
			"bufferView":2,
			"componentType":5126,
			"count":760,
			"type":"VEC2"
		},
		{
			"bufferView":3,
			"componentType":5126,
			"count":760,
			"type":"VEC4"
		},
		{
			"bufferView":4,
			"componentType":5123,
			"count":3840,
			"type":"SCALAR"
		}
	],
	"bufferViews":[
		{
			"buffer":0,
			"byteLength":9120,
			"byteOffset":0,
			"target":34962
		},
		{
			"buffer":0,
			"byteLength":9120,
			"byteOffset":9120,
			"target":34962
		},
		{
			"buffer":0,
			"byteLength":6080,
			"byteOffset":18240,
			"target":34962
		},
		{
			"buffer":0,
			"byteLength":12160,
			"byteOffset":24320,
			"target":34962
		},
		{
			"buffer":0,
			"byteLength":7680,
			"byteOffset":36480,
			"target":34963
		}
	],
	"buffers":[
		{
			"byteLength":44160,
			"uri":"asteroid-aab9b0b0e4c4a21cd6ee9a6f9f630c01.bin"
		}
	]
}
