{
	"asset":{
		"generator":"Khronos glTF Blender I/O v4.2.70",
		"version":"2.0"
	},
	"scene":0,
	"scenes":[
		{
			"name":"Scene",
			"nodes":[
				0,
				1,
				2
			]
		}
	],
	"nodes":[
		{
			"mesh":0,
			"name":"Cube",
			"scale":[
				0.376431941986084,
				0.376431941986084,
				0.376431941986084
			]
		},
		{
			"mesh":1,
			"name":"Cube.001",
			"scale":[
				0.07994188368320465,
				0.0349976047873497,
				0.0349976047873497
			],
			"translation":[
				-0.17957785725593567,
				0.3226669132709503,
				-0.20070873200893402
			]
		},
		{
			"mesh":2,
			"name":"Cube.002",
			"scale":[
				0.07994188368320465,
				0.0349976047873497,
				0.0349976047873497
			],
			"translation":[
				-0.17957785725593567,
				-0.33227428793907166,
				-0.20070873200893402
			]
		}
	],
	"materials":[
		{
			"doubleSided":true,
			"name":"Material",
			"pbrMetallicRoughness":{
				"baseColorFactor":[
					0.800000011920929,
					0.800000011920929,
					0.800000011920929,
					1
				],
				"metallicFactor":0,
				"roughnessFactor":0.5
			}
		}
	],
	"meshes":[
		{
			"name":"Cube",
			"primitives":[
				{
					"attributes":{
						"POSITION":0,
						"NORMAL":1,
						"TEXCOORD_0":2,
						"TANGENT":3
					},
					"indices":4,
					"material":0
				}
			]
		},
		{
			"name":"Cube.001",
			"primitives":[
				{
					"attributes":{
						"POSITION":5,
						"NORMAL":6,
						"TEXCOORD_0":7,
						"TANGENT":8
					},
					"indices":9
				}
			]
		},
		{
			"name":"Cube.001",
			"primitives":[
				{
					"attributes":{
						"POSITION":10,
						"NORMAL":11,
						"TEXCOORD_0":12,
						"TANGENT":13
					},
					"indices":9
				}
			]
		}
	],
	"accessors":[
		{
			"bufferView":0,
			"componentType":5126,
			"count":304,
			"max":[
				1,
				1,
				1
			],
			"min":[
				-1,
				-1,
				-1
			],
			"type":"VEC3"
		},
		{
			"bufferView":1,
			"componentType":5126,
			"count":304,
			"type":"VEC3"
		},
		{
			"bufferView":2,
			"componentType":5126,
			"count":304,
			"type":"VEC2"
		},
		{
			"bufferView":3,
			"componentType":5126,
			"count":304,
			"type":"VEC4"
		},
		{
			"bufferView":4,
			"componentType":5123,
			"count":480,
			"type":"SCALAR"
		},
		{
			"bufferView":5,
			"componentType":5126,
			"count":186,
			"max":[
				5.615325927734375,
				1,
				12.983375549316406
			],
			"min":[
				-1.1226155757904053,
				-1,
				-1.513520359992981
			],
			"type":"VEC3"
		},
		{
			"bufferView":6,
			"componentType":5126,
			"count":186,
			"type":"VEC3"
		},
		{
			"bufferView":7,
			"componentType":5126,
			"count":186,
			"type":"VEC2"
		},
		{
			"bufferView":8,
			"componentType":5126,
			"count":186,
			"type":"VEC4"
		},
		{
			"bufferView":9,
			"componentType":5123,
			"count":336,
			"type":"SCALAR"
		},
		{
			"bufferView":10,
			"componentType":5126,
			"count":186,
			"max":[
				5.615325927734375,
				1,
				12.983375549316406
			],
			"min":[
				-1.1226155757904053,
				-1,
				-1.513520359992981
			],
			"type":"VEC3"
		},
		{
			"bufferView":11,
			"componentType":5126,
			"count":186,
			"type":"VEC3"
		},
		{
			"bufferView":12,
			"componentType":5126,
			"count":186,
			"type":"VEC2"
		},
		{
			"bufferView":13,
			"componentType":5126,
			"count":186,
			"type":"VEC4"
		}
	],
	"bufferViews":[
		{
			"buffer":0,
			"byteLength":3648,
			"byteOffset":0,
			"target":34962
		},
		{
			"buffer":0,
			"byteLength":3648,
			"byteOffset":3648,
			"target":34962
		},
		{
			"buffer":0,
			"byteLength":2432,
			"byteOffset":7296,
			"target":34962
		},
		{
			"buffer":0,
			"byteLength":4864,
			"byteOffset":9728,
			"target":34962
		},
		{
			"buffer":0,
			"byteLength":960,
			"byteOffset":14592,
			"target":34963
		},
		{
			"buffer":0,
			"byteLength":2232,
			"byteOffset":15552,
			"target":34962
		},
		{
			"buffer":0,
			"byteLength":2232,
			"byteOffset":17784,
			"target":34962
		},
		{
			"buffer":0,
			"byteLength":1488,
			"byteOffset":20016,
			"target":34962
		},
		{
			"buffer":0,
			"byteLength":2976,
			"byteOffset":21504,
			"target":34962
		},
		{
			"buffer":0,
			"byteLength":672,
			"byteOffset":24480,
			"target":34963
		},
		{
			"buffer":0,
			"byteLength":2232,
			"byteOffset":25152,
			"target":34962
		},
		{
			"buffer":0,
			"byteLength":2232,
			"byteOffset":27384,
			"target":34962
		},
		{
			"buffer":0,
			"byteLength":1488,
			"byteOffset":29616,
			"target":34962
		},
		{
			"buffer":0,
			"byteLength":2976,
			"byteOffset":31104,
			"target":34962
		}
	],
	"buffers":[
		{
			"byteLength":34080,
			"uri":"crate-7324295e9d9a578ec2938bbd57708174.bin"
		}
	]
}
