{
	"asset":{
		"generator":"Khronos glTF Blender I/O v4.2.70",
		"version":"2.0"
	},
	"scene":0,
	"scenes":[
		{
			"name":"Scene",
			"nodes":[
				0,
				1,
				2
			]
		}
	],
	"nodes":[
		{
			"camera":0,
			"name":"Camera",
			"rotation":[
				-0.20997299253940582,
				0.3857799470424652,
				0.09062844514846802,
				0.8937962055206299
			],
			"translation":[
				7.358891487121582,
				4.958309173583984,
				6.925790786743164
			]
		},
		{
			"mesh":0,
			"name":"Torus"
		},
		{
			"mesh":1,
			"name":"icing",
			"translation":[
				0,
				0.0003122985363006592,
				0
			]
		}
	],
	"cameras":[
		{
			"name":"Camera",
			"perspective":{
				"aspectRatio":1.7777777777777777,
				"yfov":0.39959652046304894,
				"zfar":100,
				"znear":0.10000000149011612
			},
			"type":"perspective"
		}
	],
	"materials":[
		{
			"doubleSided":true,
			"name":"Material.002",
			"pbrMetallicRoughness":{
				"baseColorFactor":[
					0.8000229597091675,
					0,
					0.0030420194379985332,
					1
				],
				"metallicFactor":0,
				"roughnessFactor":0.5
			}
		},
		{
			"doubleSided":true,
			"name":"Material.001",
			"pbrMetallicRoughness":{
				"baseColorFactor":[
					0.06814108788967133,
					0.057526424527168274,
					0.8004156351089478,
					1
				],
				"metallicFactor":0,
				"roughnessFactor":0.5
			}
		}
	],
	"meshes":[
		{
			"name":"Torus",
			"primitives":[
				{
					"attributes":{
						"POSITION":0,
						"NORMAL":1,
						"TEXCOORD_0":2,
						"TANGENT":3
					},
					"indices":4,
					"material":0
				}
			]
		},
		{
			"name":"Torus.001",
			"primitives":[
				{
					"attributes":{
						"POSITION":5,
						"NORMAL":6,
						"TEXCOORD_0":7,
						"TANGENT":8
					},
					"indices":9,
					"material":1
				}
			]
		}
	],
	"accessors":[
		{
			"bufferView":0,
			"componentType":5126,
			"count":1757,
			"max":[
				1.1232935190200806,
				0.5174018144607544,
				1.1225758790969849
			],
			"min":[
				-1.1240280866622925,
				-0.5161213874816895,
				-1.123960018157959
			],
			"type":"VEC3"
		},
		{
			"bufferView":1,
			"componentType":5126,
			"count":1757,
			"type":"VEC3"
		},
		{
			"bufferView":2,
			"componentType":5126,
			"count":1757,
			"type":"VEC2"
		},
		{
			"bufferView":3,
			"componentType":5126,
			"count":1757,
			"type":"VEC4"
		},
		{
			"bufferView":4,
			"componentType":5123,
			"count":9216,
			"type":"SCALAR"
		},
		{
			"bufferView":5,
			"componentType":5126,
			"count":2044,
			"max":[
				1.172752022743225,
				0.5669872760772705,
				1.1718556880950928
			],
			"min":[
				-1.1733242273330688,
				-0.005616716109216213,
				-1.1725798845291138
			],
			"type":"VEC3"
		},
		{
			"bufferView":6,
			"componentType":5126,
			"count":2044,
			"type":"VEC3"
		},
		{
			"bufferView":7,
			"componentType":5126,
			"count":2044,
			"type":"VEC2"
		},
		{
			"bufferView":8,
			"componentType":5126,
			"count":2044,
			"type":"VEC4"
		},
		{
			"bufferView":9,
			"componentType":5123,
			"count":9984,
			"type":"SCALAR"
		}
	],
	"bufferViews":[
		{
			"buffer":0,
			"byteLength":21084,
			"byteOffset":0,
			"target":34962
		},
		{
			"buffer":0,
			"byteLength":21084,
			"byteOffset":21084,
			"target":34962
		},
		{
			"buffer":0,
			"byteLength":14056,
			"byteOffset":42168,
			"target":34962
		},
		{
			"buffer":0,
			"byteLength":28112,
			"byteOffset":56224,
			"target":34962
		},
		{
			"buffer":0,
			"byteLength":18432,
			"byteOffset":84336,
			"target":34963
		},
		{
			"buffer":0,
			"byteLength":24528,
			"byteOffset":102768,
			"target":34962
		},
		{
			"buffer":0,
			"byteLength":24528,
			"byteOffset":127296,
			"target":34962
		},
		{
			"buffer":0,
			"byteLength":16352,
			"byteOffset":151824,
			"target":34962
		},
		{
			"buffer":0,
			"byteLength":32704,
			"byteOffset":168176,
			"target":34962
		},
		{
			"buffer":0,
			"byteLength":19968,
			"byteOffset":200880,
			"target":34963
		}
	],
	"buffers":[
		{
			"byteLength":220848,
			"uri":"donut-f55c19306316e2f9f2ac0607a1f1c71b.bin"
		}
	]
}
