{
	"asset":{
		"generator":"Khronos glTF Blender I/O v4.2.70",
		"version":"2.0"
	},
	"scene":0,
	"scenes":[
		{
			"name":"Scene",
			"nodes":[
				0,
				2,
				3
			]
		}
	],
	"nodes":[
		{
			"camera":0,
			"name":"Camera",
			"rotation":[
				-0.20997299253940582,
				0.3857799470424652,
				0.09062844514846802,
				0.8937962055206299
			],
			"translation":[
				7.358891487121582,
				4.958309173583984,
				6.925790786743164
			]
		},
		{
			"mesh":0,
			"name":"icing",
			"translation":[
				0,
				0.0003123283386230469,
				0
			]
		},
		{
			"children":[
				1
			],
			"mesh":1,
			"name":"Torus",
			"translation":[
				0.15553569793701172,
				0.5212792158126831,
				-0.05047166347503662
			]
		},
		{
			"mesh":2,
			"name":"Plane"
		}
	],
	"cameras":[
		{
			"name":"Camera",
			"perspective":{
				"aspectRatio":1.7777777777777777,
				"yfov":0.39959652046304894,
				"zfar":100,
				"znear":0.10000000149011612
			},
			"type":"perspective"
		}
	],
	"materials":[
		{
			"doubleSided":true,
			"name":"Material.001",
			"pbrMetallicRoughness":{
				"baseColorFactor":[
					0.800536572933197,
					0.018866781145334244,
					0.5579977631568909,
					1
				],
				"metallicFactor":0,
				"roughnessFactor":0.375
			}
		},
		{
			"doubleSided":true,
			"name":"Material.002",
			"pbrMetallicRoughness":{
				"baseColorFactor":[
					0.8002356290817261,
					0.42762136459350586,
					0.143653005361557,
					1
				],
				"metallicFactor":0
			}
		},
		{
			"doubleSided":true,
			"name":"Material",
			"pbrMetallicRoughness":{
				"metallicRoughnessTexture":{
					"index":0
				}
			}
		}
	],
	"meshes":[
		{
			"name":"Torus.001",
			"primitives":[
				{
					"attributes":{
						"POSITION":0,
						"NORMAL":1,
						"TEXCOORD_0":2,
						"TANGENT":3
					},
					"indices":4,
					"material":0
				}
			]
		},
		{
			"name":"Torus",
			"primitives":[
				{
					"attributes":{
						"POSITION":5,
						"NORMAL":6,
						"TEXCOORD_0":7,
						"TANGENT":8
					},
					"indices":9,
					"material":1
				}
			]
		},
		{
			"name":"Plane",
			"primitives":[
				{
					"attributes":{
						"POSITION":10,
						"NORMAL":11,
						"TEXCOORD_0":12,
						"TANGENT":13
					},
					"indices":14,
					"material":2
				}
			]
		}
	],
	"textures":[
		{
			"sampler":0,
			"source":0
		}
	],
	"images":[
		{
			"mimeType":"image/jpeg",
			"name":"Poliigon_MetalGoldPaint_7253_Roughness.jpg",
			"uri":"../../../Blender/Poliigon_MetalGoldPaint_7253/1K/Poliigon_MetalGoldPaint_7253_Roughness.jpg"
		}
	],
	"accessors":[
		{
			"bufferView":0,
			"componentType":5126,
			"count":27686,
			"max":[
				1.1693774461746216,
				0.5598182678222656,
				1.1795200109481812
			],
			"min":[
				-1.1709306240081787,
				-0.5520358085632324,
				-1.1705665588378906
			],
			"type":"VEC3"
		},
		{
			"bufferView":1,
			"componentType":5126,
			"count":27686,
			"type":"VEC3"
		},
		{
			"bufferView":2,
			"componentType":5126,
			"count":27686,
			"type":"VEC2"
		},
		{
			"bufferView":3,
			"componentType":5126,
			"count":27686,
			"type":"VEC4"
		},
		{
			"bufferView":4,
			"componentType":5123,
			"count":161280,
			"type":"SCALAR"
		},
		{
			"bufferView":5,
			"componentType":5126,
			"count":6628,
			"max":[
				1.1242560148239136,
				0.5183648467063904,
				1.1231110095977783
			],
			"min":[
				-1.1244765520095825,
				-0.5171148180961609,
				-1.1241974830627441
			],
			"type":"VEC3"
		},
		{
			"bufferView":6,
			"componentType":5126,
			"count":6628,
			"type":"VEC3"
		},
		{
			"bufferView":7,
			"componentType":5126,
			"count":6628,
			"type":"VEC2"
		},
		{
			"bufferView":8,
			"componentType":5126,
			"count":6628,
			"type":"VEC4"
		},
		{
			"bufferView":9,
			"componentType":5123,
			"count":36864,
			"type":"SCALAR"
		},
		{
			"bufferView":10,
			"componentType":5126,
			"count":4,
			"max":[
				9.21114730834961,
				0,
				9.21114730834961
			],
			"min":[
				-9.21114730834961,
				0,
				-9.21114730834961
			],
			"type":"VEC3"
		},
		{
			"bufferView":11,
			"componentType":5126,
			"count":4,
			"type":"VEC3"
		},
		{
			"bufferView":12,
			"componentType":5126,
			"count":4,
			"type":"VEC2"
		},
		{
			"bufferView":13,
			"componentType":5126,
			"count":4,
			"type":"VEC4"
		},
		{
			"bufferView":14,
			"componentType":5123,
			"count":6,
			"type":"SCALAR"
		}
	],
	"bufferViews":[
		{
			"buffer":0,
			"byteLength":332232,
			"byteOffset":0,
			"target":34962
		},
		{
			"buffer":0,
			"byteLength":332232,
			"byteOffset":332232,
			"target":34962
		},
		{
			"buffer":0,
			"byteLength":221488,
			"byteOffset":664464,
			"target":34962
		},
		{
			"buffer":0,
			"byteLength":442976,
			"byteOffset":885952,
			"target":34962
		},
		{
			"buffer":0,
			"byteLength":322560,
			"byteOffset":1328928,
			"target":34963
		},
		{
			"buffer":0,
			"byteLength":79536,
			"byteOffset":1651488,
			"target":34962
		},
		{
			"buffer":0,
			"byteLength":79536,
			"byteOffset":1731024,
			"target":34962
		},
		{
			"buffer":0,
			"byteLength":53024,
			"byteOffset":1810560,
			"target":34962
		},
		{
			"buffer":0,
			"byteLength":106048,
			"byteOffset":1863584,
			"target":34962
		},
		{
			"buffer":0,
			"byteLength":73728,
			"byteOffset":1969632,
			"target":34963
		},
		{
			"buffer":0,
			"byteLength":48,
			"byteOffset":2043360,
			"target":34962
		},
		{
			"buffer":0,
			"byteLength":48,
			"byteOffset":2043408,
			"target":34962
		},
		{
			"buffer":0,
			"byteLength":32,
			"byteOffset":2043456,
			"target":34962
		},
		{
			"buffer":0,
			"byteLength":64,
			"byteOffset":2043488,
			"target":34962
		},
		{
			"buffer":0,
			"byteLength":12,
			"byteOffset":2043552,
			"target":34963
		}
	],
	"samplers":[
		{
			"magFilter":9729,
			"minFilter":9987
		}
	],
	"buffers":[
		{
			"byteLength":2043564,
			"uri":"donut-a21c61979393f503e76b648f940e6f70.bin"
		}
	]
}
