{
	"asset":{
		"generator":"Khronos glTF Blender I/O v4.2.70",
		"version":"2.0"
	},
	"scene":0,
	"scenes":[
		{
			"extras":{
				"matlib":{
					"lib_index":1,
					"filter":0,
					"cat_index":-1,
					"categories":[],
					"all_materials":[
						{
							"name":"Template Image"
						},
						{
							"name":"Template_double_sided"
						},
						{
							"name":"template_Image_Triplanar"
						},
						{
							"name":"template_all_trans_textures"
						},
						{
							"name":"template_alpha_image"
						},
						{
							"name":"template_alpha_image_color"
						},
						{
							"name":"template_color"
						},
						{
							"name":"template_converter"
						},
						{
							"name":"template_dif_nor_spec"
						},
						{
							"name":"template_image_apha_overlay"
						},
						{
							"name":"template_image_procedural_blend"
						},
						{
							"name":"template_image_procedural_overlay"
						},
						{
							"name":"template_rgb>hsv"
						},
						{
							"name":"template_vector"
						}
					],
					"materials":[
						{
							"name":"Template Image",
							"category":""
						},
						{
							"name":"Template_double_sided",
							"category":""
						},
						{
							"name":"template_Image_Triplanar",
							"category":""
						},
						{
							"name":"template_all_trans_textures",
							"category":""
						},
						{
							"name":"template_alpha_image",
							"category":""
						},
						{
							"name":"template_alpha_image_color",
							"category":""
						},
						{
							"name":"template_color",
							"category":""
						},
						{
							"name":"template_converter",
							"category":""
						},
						{
							"name":"template_dif_nor_spec",
							"category":""
						},
						{
							"name":"template_image_apha_overlay",
							"category":""
						},
						{
							"name":"template_image_procedural_blend",
							"category":""
						},
						{
							"name":"template_image_procedural_overlay",
							"category":""
						},
						{
							"name":"template_rgb>hsv",
							"category":""
						},
						{
							"name":"template_vector",
							"category":""
						}
					],
					"mat_index":0,
					"search":"1970_tiles",
					"last_selected":"Cube.006"
				}
			},
			"name":"Scene",
			"nodes":[
				0,
				1,
				2,
				3,
				4,
				5,
				6,
				7,
				8,
				9,
				10,
				11
			]
		}
	],
	"nodes":[
		{
			"mesh":0,
			"name":"Nozzle",
			"rotation":[
				-0.7071068286895752,
				0,
				0,
				0.7071068286895752
			],
			"scale":[
				4.102982997894287,
				10.01401424407959,
				4.434883117675781
			],
			"translation":[
				-0.02846284955739975,
				2.0567147731781006,
				17.050371170043945
			]
		},
		{
			"mesh":1,
			"name":"MainHull"
		},
		{
			"mesh":2,
			"name":"PropelantTank",
			"rotation":[
				0,
				0.13183632493019104,
				0,
				0.9912714958190918
			],
			"scale":[
				3.068801164627075,
				3.068800926208496,
				3.068801164627075
			],
			"translation":[
				-3.9250073432922363,
				3.9902663230895996,
				-0.180711030960083
			]
		},
		{
			"mesh":3,
			"name":"EngineHull",
			"scale":[
				1.473414421081543,
				2.4428229331970215,
				3.281559944152832
			],
			"translation":[
				-0.028464995324611664,
				7.686829566955566,
				3.9001517295837402
			]
		},
		{
			"mesh":4,
			"name":"Cube.003",
			"scale":[
				2.4428229331970215,
				2.4428229331970215,
				2.4428229331970215
			],
			"translation":[
				-1.6777606010437012,
				5.57248592376709,
				-16.143787384033203
			]
		},
		{
			"mesh":5,
			"name":"Cube.006",
			"scale":[
				2.4428229331970215,
				2.4428229331970215,
				2.4428229331970215
			],
			"translation":[
				-1.5202206373214722,
				5.412896156311035,
				-16.246225357055664
			]
		},
		{
			"name":"Material_Preview_Dummy"
		},
		{
			"mesh":6,
			"name":"Cube.001",
			"rotation":[
				0,
				-0.3826834261417389,
				0,
				0.9238795638084412
			],
			"scale":[
				0.34241461753845215,
				0.34241458773612976,
				0.34241461753845215
			],
			"translation":[
				3.2662277221679688,
				2.1226806640625,
				8.300369262695312
			]
		},
		{
			"mesh":7,
			"name":"Cube.002",
			"rotation":[
				0,
				-0.3826834261417389,
				0,
				0.9238795638084412
			],
			"scale":[
				0.34241461753845215,
				0.34241458773612976,
				0.34241461753845215
			],
			"translation":[
				4.291717529296875,
				2.1226806640625,
				7.27602481842041
			]
		},
		{
			"mesh":8,
			"name":"Cube.004",
			"rotation":[
				0.2071758657693863,
				0,
				0,
				0.9783037304878235
			],
			"scale":[
				0.34241458773612976,
				0.34241458773612976,
				0.34241458773612976
			],
			"translation":[
				1.9901940822601318,
				4.495693206787109,
				8.023902893066406
			]
		},
		{
			"mesh":8,
			"name":"Cube.005",
			"rotation":[
				0.2071758657693863,
				0,
				0,
				0.9783037304878235
			],
			"scale":[
				0.34241458773612976,
				0.34241458773612976,
				0.34241458773612976
			],
			"translation":[
				-0.0666092038154602,
				4.495693206787109,
				8.023902893066406
			]
		},
		{
			"mesh":8,
			"name":"Cube.007",
			"rotation":[
				0.2071758657693863,
				0,
				0,
				0.9783037304878235
			],
			"scale":[
				0.34241458773612976,
				0.34241458773612976,
				0.34241458773612976
			],
			"translation":[
				-2.056133508682251,
				4.495693206787109,
				8.023902893066406
			]
		}
	],
	"materials":[
		{
			"doubleSided":true,
			"extras":{
				"luxrender_coating":{},
				"luxrender_transparency":{},
				"category":"Organic"
			},
			"name":"Lemon"
		},
		{
			"doubleSided":true,
			"name":"Material.002",
			"pbrMetallicRoughness":{
				"baseColorFactor":[
					0.11381424963474274,
					0.07339897006750107,
					0.027704473584890366,
					1
				],
				"metallicFactor":0,
				"roughnessFactor":0.6772727370262146
			}
		},
		{
			"doubleSided":true,
			"extras":{
				"luxrender_coating":{},
				"luxrender_transparency":{},
				"category":"Metal"
			},
			"name":"Galvanized Steel"
		},
		{
			"doubleSided":true,
			"name":"Material",
			"pbrMetallicRoughness":{
				"baseColorFactor":[
					0.800000011920929,
					0.800000011920929,
					0.800000011920929,
					1
				],
				"metallicFactor":0,
				"roughnessFactor":0.5
			}
		},
		{
			"doubleSided":true,
			"name":"Material.006",
			"pbrMetallicRoughness":{
				"baseColorFactor":[
					0.800000011920929,
					0.800000011920929,
					0.800000011920929,
					1
				],
				"metallicFactor":0,
				"roughnessFactor":0.5
			}
		}
	],
	"meshes":[
		{
			"name":"Sphere.003",
			"primitives":[
				{
					"attributes":{
						"POSITION":0,
						"NORMAL":1,
						"TEXCOORD_0":2,
						"TANGENT":3
					},
					"indices":4,
					"material":0
				}
			]
		},
		{
			"name":"Cube.003",
			"primitives":[
				{
					"attributes":{
						"POSITION":5,
						"NORMAL":6,
						"TEXCOORD_0":7
					},
					"indices":8,
					"material":1
				}
			]
		},
		{
			"name":"Sphere.001",
			"primitives":[
				{
					"attributes":{
						"POSITION":9,
						"NORMAL":10,
						"TEXCOORD_0":11,
						"TANGENT":12
					},
					"indices":13,
					"material":2
				}
			]
		},
		{
			"name":"Cube.004",
			"primitives":[
				{
					"attributes":{
						"POSITION":14,
						"NORMAL":15,
						"TEXCOORD_0":16
					},
					"indices":17
				}
			]
		},
		{
			"name":"Cube.007",
			"primitives":[
				{
					"attributes":{
						"POSITION":18,
						"NORMAL":19,
						"TEXCOORD_0":20,
						"TANGENT":21
					},
					"indices":22,
					"material":3
				}
			]
		},
		{
			"name":"Cube.008",
			"primitives":[
				{
					"attributes":{
						"POSITION":23,
						"NORMAL":24,
						"TEXCOORD_0":25
					},
					"indices":26,
					"material":4
				}
			]
		},
		{
			"name":"Cube.001",
			"primitives":[
				{
					"attributes":{
						"POSITION":27,
						"NORMAL":28,
						"TEXCOORD_0":29,
						"TANGENT":30
					},
					"indices":31,
					"material":2
				}
			]
		},
		{
			"name":"Cube.002",
			"primitives":[
				{
					"attributes":{
						"POSITION":32,
						"NORMAL":33,
						"TEXCOORD_0":34,
						"TANGENT":35
					},
					"indices":36,
					"material":2
				}
			]
		},
		{
			"name":"Cube.001",
			"primitives":[
				{
					"attributes":{
						"POSITION":37,
						"NORMAL":38,
						"TEXCOORD_0":39,
						"TANGENT":40
					},
					"indices":41,
					"material":2
				}
			]
		}
	],
	"accessors":[
		{
			"bufferView":0,
			"componentType":5126,
			"count":1764,
			"max":[
				0.9238794445991516,
				1,
				0.9238792657852173
			],
			"min":[
				-0.9238791465759277,
				0.3826834559440613,
				-0.9238790273666382
			],
			"type":"VEC3"
		},
		{
			"bufferView":1,
			"componentType":5126,
			"count":1764,
			"type":"VEC3"
		},
		{
			"bufferView":2,
			"componentType":5126,
			"count":1764,
			"type":"VEC2"
		},
		{
			"bufferView":3,
			"componentType":5126,
			"count":1764,
			"type":"VEC4"
		},
		{
			"bufferView":4,
			"componentType":5123,
			"count":2784,
			"type":"SCALAR"
		},
		{
			"bufferView":5,
			"componentType":5126,
			"count":327,
			"max":[
				5.177890777587891,
				5.3130340576171875,
				7.21523380279541
			],
			"min":[
				-5.234819412231445,
				-1.5235426425933838,
				-19.98931884765625
			],
			"type":"VEC3"
		},
		{
			"bufferView":6,
			"componentType":5126,
			"count":327,
			"type":"VEC3"
		},
		{
			"bufferView":7,
			"componentType":5126,
			"count":327,
			"type":"VEC2"
		},
		{
			"bufferView":8,
			"componentType":5123,
			"count":633,
			"type":"SCALAR"
		},
		{
			"bufferView":9,
			"componentType":5126,
			"count":528,
			"max":[
				1,
				0.9659258127212524,
				1
			],
			"min":[
				-1,
				-1,
				-1
			],
			"type":"VEC3"
		},
		{
			"bufferView":10,
			"componentType":5126,
			"count":528,
			"type":"VEC3"
		},
		{
			"bufferView":11,
			"componentType":5126,
			"count":528,
			"type":"VEC2"
		},
		{
			"bufferView":12,
			"componentType":5126,
			"count":528,
			"type":"VEC4"
		},
		{
			"bufferView":13,
			"componentType":5123,
			"count":786,
			"type":"SCALAR"
		},
		{
			"bufferView":14,
			"componentType":5126,
			"count":36,
			"max":[
				1,
				-0.7368552684783936,
				1
			],
			"min":[
				-1,
				-1,
				-1
			],
			"type":"VEC3"
		},
		{
			"bufferView":15,
			"componentType":5126,
			"count":36,
			"type":"VEC3"
		},
		{
			"bufferView":16,
			"componentType":5126,
			"count":36,
			"type":"VEC2"
		},
		{
			"bufferView":17,
			"componentType":5123,
			"count":60,
			"type":"SCALAR"
		},
		{
			"bufferView":18,
			"componentType":5126,
			"count":40,
			"max":[
				1.6292190551757812,
				-0.04853930324316025,
				8.314847946166992e-06
			],
			"min":[
				0.8348559141159058,
				-0.12354105710983276,
				-0.4702865481376648
			],
			"type":"VEC3"
		},
		{
			"bufferView":19,
			"componentType":5126,
			"count":40,
			"type":"VEC3"
		},
		{
			"bufferView":20,
			"componentType":5126,
			"count":40,
			"type":"VEC2"
		},
		{
			"bufferView":21,
			"componentType":5126,
			"count":40,
			"type":"VEC4"
		},
		{
			"bufferView":22,
			"componentType":5123,
			"count":60,
			"type":"SCALAR"
		},
		{
			"bufferView":23,
			"componentType":5126,
			"count":48,
			"max":[
				0.5419546961784363,
				0.040879011154174805,
				1.9780402183532715
			],
			"min":[
				-0.30588579177856445,
				-0.040879011154174805,
				-0.40818262100219727
			],
			"type":"VEC3"
		},
		{
			"bufferView":24,
			"componentType":5126,
			"count":48,
			"type":"VEC3"
		},
		{
			"bufferView":25,
			"componentType":5126,
			"count":48,
			"type":"VEC2"
		},
		{
			"bufferView":26,
			"componentType":5123,
			"count":84,
			"type":"SCALAR"
		},
		{
			"bufferView":27,
			"componentType":5126,
			"count":1152,
			"max":[
				1.1285325288772583,
				1.1285325288772583,
				14.618446350097656
			],
			"min":[
				-16.76133155822754,
				-1.1285325288772583,
				-3.2714157104492188
			],
			"type":"VEC3"
		},
		{
			"bufferView":28,
			"componentType":5126,
			"count":1152,
			"type":"VEC3"
		},
		{
			"bufferView":29,
			"componentType":5126,
			"count":1152,
			"type":"VEC2"
		},
		{
			"bufferView":30,
			"componentType":5126,
			"count":1152,
			"type":"VEC4"
		},
		{
			"bufferView":31,
			"componentType":5123,
			"count":1728,
			"type":"SCALAR"
		},
		{
			"bufferView":32,
			"componentType":5126,
			"count":1152,
			"max":[
				1.10614812374115,
				1.10614812374115,
				18.949016571044922
			],
			"min":[
				-18.949018478393555,
				-1.10614812374115,
				-1.10614812374115
			],
			"type":"VEC3"
		},
		{
			"bufferView":33,
			"componentType":5126,
			"count":1152,
			"type":"VEC3"
		},
		{
			"bufferView":34,
			"componentType":5126,
			"count":1152,
			"type":"VEC2"
		},
		{
			"bufferView":35,
			"componentType":5126,
			"count":1152,
			"type":"VEC4"
		},
		{
			"bufferView":36,
			"componentType":5123,
			"count":1728,
			"type":"SCALAR"
		},
		{
			"bufferView":37,
			"componentType":5126,
			"count":576,
			"max":[
				1.1285325288772583,
				1.1285325288772583,
				3.2714157104492188
			],
			"min":[
				-1.1285325288772583,
				-1.1285325288772583,
				-3.2714157104492188
			],
			"type":"VEC3"
		},
		{
			"bufferView":38,
			"componentType":5126,
			"count":576,
			"type":"VEC3"
		},
		{
			"bufferView":39,
			"componentType":5126,
			"count":576,
			"type":"VEC2"
		},
		{
			"bufferView":40,
			"componentType":5126,
			"count":576,
			"type":"VEC4"
		},
		{
			"bufferView":41,
			"componentType":5123,
			"count":864,
			"type":"SCALAR"
		}
	],
	"bufferViews":[
		{
			"buffer":0,
			"byteLength":21168,
			"byteOffset":0,
			"target":34962
		},
		{
			"buffer":0,
			"byteLength":21168,
			"byteOffset":21168,
			"target":34962
		},
		{
			"buffer":0,
			"byteLength":14112,
			"byteOffset":42336,
			"target":34962
		},
		{
			"buffer":0,
			"byteLength":28224,
			"byteOffset":56448,
			"target":34962
		},
		{
			"buffer":0,
			"byteLength":5568,
			"byteOffset":84672,
			"target":34963
		},
		{
			"buffer":0,
			"byteLength":3924,
			"byteOffset":90240,
			"target":34962
		},
		{
			"buffer":0,
			"byteLength":3924,
			"byteOffset":94164,
			"target":34962
		},
		{
			"buffer":0,
			"byteLength":2616,
			"byteOffset":98088,
			"target":34962
		},
		{
			"buffer":0,
			"byteLength":1266,
			"byteOffset":100704,
			"target":34963
		},
		{
			"buffer":0,
			"byteLength":6336,
			"byteOffset":101972,
			"target":34962
		},
		{
			"buffer":0,
			"byteLength":6336,
			"byteOffset":108308,
			"target":34962
		},
		{
			"buffer":0,
			"byteLength":4224,
			"byteOffset":114644,
			"target":34962
		},
		{
			"buffer":0,
			"byteLength":8448,
			"byteOffset":118868,
			"target":34962
		},
		{
			"buffer":0,
			"byteLength":1572,
			"byteOffset":127316,
			"target":34963
		},
		{
			"buffer":0,
			"byteLength":432,
			"byteOffset":128888,
			"target":34962
		},
		{
			"buffer":0,
			"byteLength":432,
			"byteOffset":129320,
			"target":34962
		},
		{
			"buffer":0,
			"byteLength":288,
			"byteOffset":129752,
			"target":34962
		},
		{
			"buffer":0,
			"byteLength":120,
			"byteOffset":130040,
			"target":34963
		},
		{
			"buffer":0,
			"byteLength":480,
			"byteOffset":130160,
			"target":34962
		},
		{
			"buffer":0,
			"byteLength":480,
			"byteOffset":130640,
			"target":34962
		},
		{
			"buffer":0,
			"byteLength":320,
			"byteOffset":131120,
			"target":34962
		},
		{
			"buffer":0,
			"byteLength":640,
			"byteOffset":131440,
			"target":34962
		},
		{
			"buffer":0,
			"byteLength":120,
			"byteOffset":132080,
			"target":34963
		},
		{
			"buffer":0,
			"byteLength":576,
			"byteOffset":132200,
			"target":34962
		},
		{
			"buffer":0,
			"byteLength":576,
			"byteOffset":132776,
			"target":34962
		},
		{
			"buffer":0,
			"byteLength":384,
			"byteOffset":133352,
			"target":34962
		},
		{
			"buffer":0,
			"byteLength":168,
			"byteOffset":133736,
			"target":34963
		},
		{
			"buffer":0,
			"byteLength":13824,
			"byteOffset":133904,
			"target":34962
		},
		{
			"buffer":0,
			"byteLength":13824,
			"byteOffset":147728,
			"target":34962
		},
		{
			"buffer":0,
			"byteLength":9216,
			"byteOffset":161552,
			"target":34962
		},
		{
			"buffer":0,
			"byteLength":18432,
			"byteOffset":170768,
			"target":34962
		},
		{
			"buffer":0,
			"byteLength":3456,
			"byteOffset":189200,
			"target":34963
		},
		{
			"buffer":0,
			"byteLength":13824,
			"byteOffset":192656,
			"target":34962
		},
		{
			"buffer":0,
			"byteLength":13824,
			"byteOffset":206480,
			"target":34962
		},
		{
			"buffer":0,
			"byteLength":9216,
			"byteOffset":220304,
			"target":34962
		},
		{
			"buffer":0,
			"byteLength":18432,
			"byteOffset":229520,
			"target":34962
		},
		{
			"buffer":0,
			"byteLength":3456,
			"byteOffset":247952,
			"target":34963
		},
		{
			"buffer":0,
			"byteLength":6912,
			"byteOffset":251408,
			"target":34962
		},
		{
			"buffer":0,
			"byteLength":6912,
			"byteOffset":258320,
			"target":34962
		},
		{
			"buffer":0,
			"byteLength":4608,
			"byteOffset":265232,
			"target":34962
		},
		{
			"buffer":0,
			"byteLength":9216,
			"byteOffset":269840,
			"target":34962
		},
		{
			"buffer":0,
			"byteLength":1728,
			"byteOffset":279056,
			"target":34963
		}
	],
	"buffers":[
		{
			"byteLength":280784,
			"uri":"shuttle-91a017c2c664db87e6ebc13f5e9dcd70.bin"
		}
	]
}
