{
	"asset":{
		"generator":"Khronos glTF Blender I/O v4.2.70",
		"version":"2.0"
	},
	"scene":0,
	"scenes":[
		{
			"name":"Scene",
			"nodes":[
				0,
				1,
				2,
				3,
				4,
				5,
				6,
				7,
				8
			]
		}
	],
	"nodes":[
		{
			"mesh":0,
			"name":"Hull",
			"rotation":[
				0,
				0.7071068286895752,
				0,
				0.7071068286895752
			],
			"translation":[
				-0.0001386404037475586,
				0,
				-0.0024268031120300293
			]
		},
		{
			"mesh":1,
			"name":"Tank",
			"rotation":[
				0,
				0.7071068286895752,
				0,
				0.7071068286895752
			],
			"translation":[
				-0.0001386404037475586,
				0,
				-0.0024268031120300293
			]
		},
		{
			"mesh":2,
			"name":"Thrusters",
			"rotation":[
				0,
				0.7071068286895752,
				0,
				0.7071068286895752
			],
			"translation":[
				-0.0001386404037475586,
				0,
				-0.0024268031120300293
			]
		},
		{
			"mesh":3,
			"name":"deco",
			"rotation":[
				0,
				-0.7071067094802856,
				0,
				0.7071068286895752
			],
			"translation":[
				-2.420442581176758,
				0,
				-0.002426326274871826
			]
		},
		{
			"mesh":3,
			"name":"Cube.001",
			"rotation":[
				0,
				-0.7071067094802856,
				0,
				0.7071068286895752
			],
			"translation":[
				-1.4730229377746582,
				0,
				-0.002426445484161377
			]
		},
		{
			"mesh":3,
			"name":"Cube.002",
			"rotation":[
				0,
				-0.7071067094802856,
				0,
				0.7071068286895752
			],
			"translation":[
				-0.5256034135818481,
				0,
				-0.0024266839027404785
			]
		},
		{
			"mesh":3,
			"name":"Cube.003",
			"rotation":[
				0,
				-0.7071067094802856,
				0,
				0.7071068286895752
			],
			"translation":[
				0.4218159317970276,
				0,
				-0.00242692232131958
			]
		},
		{
			"mesh":4,
			"name":"nav-lights-R",
			"scale":[
				0.0768555998802185,
				0.0768555998802185,
				0.0768555998802185
			],
			"translation":[
				2.857060432434082,
				0,
				0.9935618042945862
			]
		},
		{
			"mesh":4,
			"name":"nav-lights-L",
			"scale":[
				0.0768555998802185,
				0.0768555998802185,
				0.0768555998802185
			],
			"translation":[
				2.857060432434082,
				0,
				-1.0022399425506592
			]
		}
	],
	"materials":[
		{
			"doubleSided":true,
			"name":"Material",
			"pbrMetallicRoughness":{
				"baseColorFactor":[
					0.800000011920929,
					0.800000011920929,
					0.800000011920929,
					1
				],
				"metallicFactor":0,
				"roughnessFactor":0.5
			}
		}
	],
	"meshes":[
		{
			"name":"Cube",
			"primitives":[
				{
					"attributes":{
						"POSITION":0,
						"NORMAL":1,
						"TEXCOORD_0":2
					},
					"indices":3,
					"material":0
				}
			]
		},
		{
			"name":"Sphere",
			"primitives":[
				{
					"attributes":{
						"POSITION":4,
						"NORMAL":5,
						"TEXCOORD_0":6,
						"TANGENT":7
					},
					"indices":8
				}
			]
		},
		{
			"name":"Cube.001",
			"primitives":[
				{
					"attributes":{
						"POSITION":9,
						"NORMAL":10,
						"TEXCOORD_0":11,
						"TANGENT":12
					},
					"indices":13
				}
			]
		},
		{
			"name":"Cube.003",
			"primitives":[
				{
					"attributes":{
						"POSITION":14,
						"NORMAL":15,
						"TEXCOORD_0":16,
						"TANGENT":17
					},
					"indices":18
				}
			]
		},
		{
			"name":"Circle",
			"primitives":[
				{
					"attributes":{
						"POSITION":19,
						"NORMAL":20,
						"TEXCOORD_0":21
					},
					"indices":22
				}
			]
		}
	],
	"accessors":[
		{
			"bufferView":0,
			"componentType":5126,
			"count":306,
			"max":[
				1.4307498931884766,
				1,
				2.8548178672790527
			],
			"min":[
				-1.4307498931884766,
				-1,
				-2.4881491661071777
			],
			"type":"VEC3"
		},
		{
			"bufferView":1,
			"componentType":5126,
			"count":306,
			"type":"VEC3"
		},
		{
			"bufferView":2,
			"componentType":5126,
			"count":306,
			"type":"VEC2"
		},
		{
			"bufferView":3,
			"componentType":5123,
			"count":480,
			"type":"SCALAR"
		},
		{
			"bufferView":4,
			"componentType":5126,
			"count":82,
			"max":[
				1.3819959163665771,
				0.41341903805732727,
				-2.3747446537017822
			],
			"min":[
				-1.3819959163665771,
				-0.41740861535072327,
				-3.199514865875244
			],
			"type":"VEC3"
		},
		{
			"bufferView":5,
			"componentType":5126,
			"count":82,
			"type":"VEC3"
		},
		{
			"bufferView":6,
			"componentType":5126,
			"count":82,
			"type":"VEC2"
		},
		{
			"bufferView":7,
			"componentType":5126,
			"count":82,
			"type":"VEC4"
		},
		{
			"bufferView":8,
			"componentType":5123,
			"count":312,
			"type":"SCALAR"
		},
		{
			"bufferView":9,
			"componentType":5126,
			"count":192,
			"max":[
				1.6563156843185425,
				0.2660498023033142,
				0.30562785267829895
			],
			"min":[
				-1.6563156843185425,
				-0.3158571124076843,
				-0.2762790620326996
			],
			"type":"VEC3"
		},
		{
			"bufferView":10,
			"componentType":5126,
			"count":192,
			"type":"VEC3"
		},
		{
			"bufferView":11,
			"componentType":5126,
			"count":192,
			"type":"VEC2"
		},
		{
			"bufferView":12,
			"componentType":5126,
			"count":192,
			"type":"VEC4"
		},
		{
			"bufferView":13,
			"componentType":5123,
			"count":264,
			"type":"SCALAR"
		},
		{
			"bufferView":14,
			"componentType":5126,
			"count":40,
			"max":[
				0.9999997615814209,
				1.054519772529602,
				-1.0158379077911377
			],
			"min":[
				-1.000000238418579,
				0.9135478734970093,
				-1.7209317684173584
			],
			"type":"VEC3"
		},
		{
			"bufferView":15,
			"componentType":5126,
			"count":40,
			"type":"VEC3"
		},
		{
			"bufferView":16,
			"componentType":5126,
			"count":40,
			"type":"VEC2"
		},
		{
			"bufferView":17,
			"componentType":5126,
			"count":40,
			"type":"VEC4"
		},
		{
			"bufferView":18,
			"componentType":5123,
			"count":60,
			"type":"SCALAR"
		},
		{
			"bufferView":19,
			"componentType":5126,
			"count":32,
			"max":[
				1,
				0,
				1
			],
			"min":[
				-1,
				0,
				-1
			],
			"type":"VEC3"
		},
		{
			"bufferView":20,
			"componentType":5126,
			"count":32,
			"type":"VEC3"
		},
		{
			"bufferView":21,
			"componentType":5126,
			"count":32,
			"type":"VEC2"
		},
		{
			"bufferView":22,
			"componentType":5123,
			"count":90,
			"type":"SCALAR"
		}
	],
	"bufferViews":[
		{
			"buffer":0,
			"byteLength":3672,
			"byteOffset":0,
			"target":34962
		},
		{
			"buffer":0,
			"byteLength":3672,
			"byteOffset":3672,
			"target":34962
		},
		{
			"buffer":0,
			"byteLength":2448,
			"byteOffset":7344,
			"target":34962
		},
		{
			"buffer":0,
			"byteLength":960,
			"byteOffset":9792,
			"target":34963
		},
		{
			"buffer":0,
			"byteLength":984,
			"byteOffset":10752,
			"target":34962
		},
		{
			"buffer":0,
			"byteLength":984,
			"byteOffset":11736,
			"target":34962
		},
		{
			"buffer":0,
			"byteLength":656,
			"byteOffset":12720,
			"target":34962
		},
		{
			"buffer":0,
			"byteLength":1312,
			"byteOffset":13376,
			"target":34962
		},
		{
			"buffer":0,
			"byteLength":624,
			"byteOffset":14688,
			"target":34963
		},
		{
			"buffer":0,
			"byteLength":2304,
			"byteOffset":15312,
			"target":34962
		},
		{
			"buffer":0,
			"byteLength":2304,
			"byteOffset":17616,
			"target":34962
		},
		{
			"buffer":0,
			"byteLength":1536,
			"byteOffset":19920,
			"target":34962
		},
		{
			"buffer":0,
			"byteLength":3072,
			"byteOffset":21456,
			"target":34962
		},
		{
			"buffer":0,
			"byteLength":528,
			"byteOffset":24528,
			"target":34963
		},
		{
			"buffer":0,
			"byteLength":480,
			"byteOffset":25056,
			"target":34962
		},
		{
			"buffer":0,
			"byteLength":480,
			"byteOffset":25536,
			"target":34962
		},
		{
			"buffer":0,
			"byteLength":320,
			"byteOffset":26016,
			"target":34962
		},
		{
			"buffer":0,
			"byteLength":640,
			"byteOffset":26336,
			"target":34962
		},
		{
			"buffer":0,
			"byteLength":120,
			"byteOffset":26976,
			"target":34963
		},
		{
			"buffer":0,
			"byteLength":384,
			"byteOffset":27096,
			"target":34962
		},
		{
			"buffer":0,
			"byteLength":384,
			"byteOffset":27480,
			"target":34962
		},
		{
			"buffer":0,
			"byteLength":256,
			"byteOffset":27864,
			"target":34962
		},
		{
			"buffer":0,
			"byteLength":180,
			"byteOffset":28120,
			"target":34963
		}
	],
	"buffers":[
		{
			"byteLength":28300,
			"uri":"spacelift-20fcf000b453612cee734b29707e295d.bin"
		}
	]
}
